<svg width="20" height="21" viewBox="0 0 20 21" fill="none" xmlns="http://www.w3.org/2000/svg">
<path d="M16.25 5.15329V14.1808C16.25 14.365 16.1768 14.5416 16.0466 14.6718C15.9164 14.802 15.7397 14.8752 15.5556 14.8752C15.3714 14.8752 15.1948 14.802 15.0645 14.6718C14.9343 14.5416 14.8612 14.365 14.8612 14.1808V6.82945L4.93611 16.7554C4.80581 16.8857 4.62908 16.9589 4.44481 16.9589C4.26053 16.9589 4.08381 16.8857 3.9535 16.7554C3.8232 16.6251 3.75 16.4483 3.75 16.2641C3.75 16.0798 3.8232 15.9031 3.9535 15.7727L13.8794 5.84771H6.52808C6.34391 5.84771 6.16728 5.77455 6.03705 5.64432C5.90682 5.51409 5.83365 5.33746 5.83365 5.15329C5.83365 4.96911 5.90682 4.79248 6.03705 4.66225C6.16728 4.53202 6.34391 4.45886 6.52808 4.45886H15.5556C15.7397 4.45886 15.9164 4.53202 16.0466 4.66225C16.1768 4.79248 16.25 4.96911 16.25 5.15329Z" fill="#4A6DD9"/>
</svg>
