<svg width="1152" height="681" viewBox="0 0 1152 681" fill="none" xmlns="http://www.w3.org/2000/svg">
<g opacity="0.6">
<mask id="path-1-inside-1_17_7787" fill="white">
<path d="M0 416.709L1152 416.709V680.709L0 680.709L0 416.709Z"/>
</mask>
<path d="M1152 416.709H1151V680.709H1152H1153V416.709H1152ZM0 680.709H1L1 416.709H0H-1L-1 680.709H0Z" fill="url(#paint0_linear_17_7787)" mask="url(#path-1-inside-1_17_7787)"/>
<line x1="144.5" y1="416.709" x2="144.5" y2="680.709" stroke="url(#paint1_linear_17_7787)" stroke-dasharray="5 5"/>
<line x1="288.5" y1="416.709" x2="288.5" y2="680.709" stroke="url(#paint2_linear_17_7787)"/>
<line x1="432.5" y1="416.709" x2="432.5" y2="680.709" stroke="url(#paint3_linear_17_7787)" stroke-dasharray="5 5"/>
<line x1="576.5" y1="416.709" x2="576.5" y2="680.709" stroke="url(#paint4_linear_17_7787)"/>
<line x1="720.5" y1="416.709" x2="720.5" y2="680.709" stroke="url(#paint5_linear_17_7787)" stroke-dasharray="5 5"/>
<line x1="864.5" y1="416.709" x2="864.5" y2="680.709" stroke="url(#paint6_linear_17_7787)"/>
<line x1="1008.5" y1="416.709" x2="1008.5" y2="680.709" stroke="url(#paint7_linear_17_7787)" stroke-dasharray="5 5"/>
</g>
<g opacity="0.6">
<mask id="path-10-inside-2_17_7787" fill="white">
<path d="M0 254.709L1152 254.709V0.708862L0 0.708862L0 254.709Z"/>
</mask>
<path d="M1152 254.709H1151V0.708862H1152H1153V254.709H1152ZM0 0.708862H1L1 254.709H0H-1L-1 0.708862H0Z" fill="url(#paint8_linear_17_7787)" mask="url(#path-10-inside-2_17_7787)"/>
<line y1="-0.5" x2="254" y2="-0.5" transform="matrix(-2.36287e-08 -1 -1 8.08629e-08 144 254.709)" stroke="url(#paint9_linear_17_7787)" stroke-dasharray="5 5"/>
<line y1="-0.5" x2="254" y2="-0.5" transform="matrix(-2.36287e-08 -1 -1 8.08628e-08 288 254.709)" stroke="url(#paint10_linear_17_7787)"/>
<line y1="-0.5" x2="254" y2="-0.5" transform="matrix(-2.36287e-08 -1 -1 8.08629e-08 432 254.709)" stroke="url(#paint11_linear_17_7787)" stroke-dasharray="5 5"/>
<line y1="-0.5" x2="254" y2="-0.5" transform="matrix(-2.36287e-08 -1 -1 8.08629e-08 576 254.709)" stroke="url(#paint12_linear_17_7787)"/>
<line y1="-0.5" x2="254" y2="-0.5" transform="matrix(-2.36287e-08 -1 -1 8.08628e-08 720 254.709)" stroke="url(#paint13_linear_17_7787)" stroke-dasharray="5 5"/>
<line y1="-0.5" x2="254" y2="-0.5" transform="matrix(-2.36287e-08 -1 -1 8.08629e-08 864 254.709)" stroke="url(#paint14_linear_17_7787)"/>
<line y1="-0.5" x2="254" y2="-0.5" transform="matrix(-2.36287e-08 -1 -1 8.08629e-08 1008 254.709)" stroke="url(#paint15_linear_17_7787)" stroke-dasharray="5 5"/>
</g>
<defs>
<linearGradient id="paint0_linear_17_7787" x1="576" y1="416.709" x2="576" y2="680.709" gradientUnits="userSpaceOnUse">
<stop stop-color="#363636" stop-opacity="0"/>
<stop offset="1" stop-color="#434343"/>
</linearGradient>
<linearGradient id="paint1_linear_17_7787" x1="143.5" y1="416.709" x2="143.5" y2="680.709" gradientUnits="userSpaceOnUse">
<stop stop-color="#363636" stop-opacity="0"/>
<stop offset="1" stop-color="#363636"/>
</linearGradient>
<linearGradient id="paint2_linear_17_7787" x1="287.5" y1="416.709" x2="287.5" y2="680.709" gradientUnits="userSpaceOnUse">
<stop stop-color="#363636" stop-opacity="0"/>
<stop offset="1" stop-color="#363636"/>
</linearGradient>
<linearGradient id="paint3_linear_17_7787" x1="431.5" y1="416.709" x2="431.5" y2="680.709" gradientUnits="userSpaceOnUse">
<stop stop-color="#363636" stop-opacity="0"/>
<stop offset="1" stop-color="#363636"/>
</linearGradient>
<linearGradient id="paint4_linear_17_7787" x1="575.5" y1="416.709" x2="575.5" y2="680.709" gradientUnits="userSpaceOnUse">
<stop stop-color="#363636" stop-opacity="0"/>
<stop offset="1" stop-color="#363636"/>
</linearGradient>
<linearGradient id="paint5_linear_17_7787" x1="719.5" y1="416.709" x2="719.5" y2="680.709" gradientUnits="userSpaceOnUse">
<stop stop-color="#363636" stop-opacity="0"/>
<stop offset="1" stop-color="#363636"/>
</linearGradient>
<linearGradient id="paint6_linear_17_7787" x1="863.5" y1="416.709" x2="863.5" y2="680.709" gradientUnits="userSpaceOnUse">
<stop stop-color="#363636" stop-opacity="0"/>
<stop offset="1" stop-color="#363636"/>
</linearGradient>
<linearGradient id="paint7_linear_17_7787" x1="1007.5" y1="416.709" x2="1007.5" y2="680.709" gradientUnits="userSpaceOnUse">
<stop stop-color="#363636" stop-opacity="0"/>
<stop offset="1" stop-color="#363636"/>
</linearGradient>
<linearGradient id="paint8_linear_17_7787" x1="576" y1="254.709" x2="576" y2="0.708847" gradientUnits="userSpaceOnUse">
<stop stop-color="#363636" stop-opacity="0"/>
<stop offset="1" stop-color="#434343"/>
</linearGradient>
<linearGradient id="paint9_linear_17_7787" x1="0" y1="0.5" x2="254" y2="0.5" gradientUnits="userSpaceOnUse">
<stop stop-color="#363636" stop-opacity="0"/>
<stop offset="1" stop-color="#363636"/>
</linearGradient>
<linearGradient id="paint10_linear_17_7787" x1="0" y1="0.5" x2="254" y2="0.5" gradientUnits="userSpaceOnUse">
<stop stop-color="#363636" stop-opacity="0"/>
<stop offset="1" stop-color="#363636"/>
</linearGradient>
<linearGradient id="paint11_linear_17_7787" x1="0" y1="0.5" x2="254" y2="0.5" gradientUnits="userSpaceOnUse">
<stop stop-color="#363636" stop-opacity="0"/>
<stop offset="1" stop-color="#363636"/>
</linearGradient>
<linearGradient id="paint12_linear_17_7787" x1="0" y1="0.5" x2="254" y2="0.5" gradientUnits="userSpaceOnUse">
<stop stop-color="#363636" stop-opacity="0"/>
<stop offset="1" stop-color="#363636"/>
</linearGradient>
<linearGradient id="paint13_linear_17_7787" x1="0" y1="0.5" x2="254" y2="0.5" gradientUnits="userSpaceOnUse">
<stop stop-color="#363636" stop-opacity="0"/>
<stop offset="1" stop-color="#363636"/>
</linearGradient>
<linearGradient id="paint14_linear_17_7787" x1="0" y1="0.5" x2="254" y2="0.5" gradientUnits="userSpaceOnUse">
<stop stop-color="#363636" stop-opacity="0"/>
<stop offset="1" stop-color="#363636"/>
</linearGradient>
<linearGradient id="paint15_linear_17_7787" x1="0" y1="0.5" x2="254" y2="0.5" gradientUnits="userSpaceOnUse">
<stop stop-color="#363636" stop-opacity="0"/>
<stop offset="1" stop-color="#363636"/>
</linearGradient>
</defs>
</svg>
