<svg width="17" height="17" viewBox="0 0 17 17" fill="none" xmlns="http://www.w3.org/2000/svg">
<path d="M14.3391 7.06261L9.33913 12.0626C9.29269 12.1091 9.23755 12.146 9.17685 12.1711C9.11615 12.1963 9.05109 12.2093 8.98538 12.2093C8.91967 12.2093 8.85461 12.1963 8.79391 12.1711C8.73321 12.146 8.67807 12.1091 8.63163 12.0626L3.63163 7.06261C3.56162 6.99268 3.51394 6.90356 3.49461 6.80652C3.47529 6.70947 3.48519 6.60888 3.52307 6.51747C3.56094 6.42606 3.62509 6.34794 3.70739 6.293C3.78968 6.23807 3.88643 6.20878 3.98538 6.20886H13.9854C14.0843 6.20878 14.1811 6.23807 14.2634 6.293C14.3457 6.34794 14.4098 6.42606 14.4477 6.51747C14.4856 6.60888 14.4955 6.70947 14.4761 6.80652C14.4568 6.90356 14.4091 6.99268 14.3391 7.06261Z" fill="#CFD3D8" fill-opacity="0.3"/>
</svg>
