<svg width="246" height="19" viewBox="0 0 246 19" fill="none" xmlns="http://www.w3.org/2000/svg">
<path opacity="0.6" d="M1.8746 7.64975C20.9567 5.43159 136.188 0.700664 183.705 1.44049C197.365 1.65318 211.027 1.88974 224.691 2.22078C229.044 2.32625 237.023 1.74519 242.574 3.3093C244.786 3.93251 244.438 4.90261 242.461 5.34581C234.093 7.22227 224.399 6.73916 215.726 7.35093C196.726 8.691 177.925 10.9769 158.886 12.1051C150.392 12.6084 142.061 13.7289 133.589 14.2664C122.926 14.9429 131.334 14.8281 137.26 14.7078C159.88 14.2487 181.627 14.7029 204.205 17.1549" stroke="url(#paint0_linear_13001_12505)" stroke-width="2" stroke-linecap="round"/>
<defs>
<linearGradient id="paint0_linear_13001_12505" x1="-9.05512" y1="-19.6465" x2="212.015" y2="115.583" gradientUnits="userSpaceOnUse">
<stop stop-color="#FF7750"/>
<stop offset="0.54" stop-color="#BD5969"/>
<stop offset="1" stop-color="#4B2494"/>
</linearGradient>
</defs>
</svg>
