<svg width="107" height="25" viewBox="0 0 107 25" fill="none" xmlns="http://www.w3.org/2000/svg">
<path d="M9.97058 3.22357V12.7089L7.80882 11.4736C3.97059 9.26768 1.58823 5.16475 1.58823 0.708862H0V11.5618C0 15.0912 2.02941 18.3559 5.25 19.9L10.0147 22.1942V12.7089L12.1765 13.9442C16.0147 16.15 18.3971 20.253 18.3971 24.7089H19.9853V13.8559C19.9853 10.3265 17.9559 7.0618 14.7353 5.51768L9.97058 3.22357Z" fill="white"/>
<path d="M29.4236 19.7089V6.61795H37.6309V8.31824H31.3987V12.3069H37.2027V14.0008H31.3987V18.0086H37.7077V19.7089H29.4236ZM48.515 9.89068L44.9546 19.7089H42.9092L39.3424 9.89068H41.3943L43.8808 17.4461H43.983L46.4632 9.89068H48.515ZM54.2087 19.907C53.2414 19.907 52.4083 19.7003 51.7094 19.287C51.0148 18.8694 50.4779 18.2834 50.0986 17.5292C49.7236 16.7707 49.5361 15.8822 49.5361 14.8637C49.5361 13.858 49.7236 12.9716 50.0986 12.2046C50.4779 11.4376 51.0063 10.8388 51.6839 10.4084C52.3657 9.97804 53.1626 9.76284 54.0745 9.76284C54.6285 9.76284 55.1654 9.85446 55.6853 10.0377C56.2052 10.2209 56.6718 10.5086 57.0851 10.9006C57.4985 11.2927 57.8245 11.8019 58.0631 12.4283C58.3018 13.0505 58.4211 13.8069 58.4211 14.6975V15.3751H50.6164V13.9432H56.5482C56.5482 13.4404 56.4459 12.9951 56.2414 12.6073C56.0368 12.2153 55.7492 11.9063 55.3785 11.6805C55.012 11.4546 54.5816 11.3417 54.0873 11.3417C53.5503 11.3417 53.0816 11.4738 52.681 11.738C52.2847 11.9979 51.9779 12.3388 51.7606 12.7607C51.5475 13.1783 51.441 13.6322 51.441 14.1222V15.2408C51.441 15.8971 51.556 16.4553 51.7861 16.9155C52.0205 17.3758 52.3465 17.7273 52.7641 17.9702C53.1817 18.2089 53.6697 18.3282 54.2279 18.3282C54.5901 18.3282 54.9204 18.277 55.2187 18.1748C55.517 18.0682 55.7748 17.9106 55.9921 17.7018C56.2094 17.493 56.3756 17.2351 56.4907 16.9283L58.2996 17.2543C58.1547 17.787 57.8948 18.2536 57.5198 18.6542C57.1491 19.0505 56.6824 19.3594 56.1199 19.581C55.5617 19.7984 54.9246 19.907 54.2087 19.907ZM60.5416 19.7089V9.89068H62.3889V11.4503H62.4912C62.6702 10.9219 62.9855 10.5064 63.4372 10.2039C63.8932 9.89707 64.4088 9.74366 64.9841 9.74366C65.1034 9.74366 65.2441 9.74792 65.406 9.75645C65.5722 9.76497 65.7021 9.77562 65.7959 9.78841V11.6165C65.7192 11.5952 65.5828 11.5718 65.3868 11.5462C65.1908 11.5164 64.9948 11.5015 64.7987 11.5015C64.347 11.5015 63.9443 11.5974 63.5906 11.7891C63.2412 11.9766 62.9642 12.2387 62.7597 12.5753C62.5551 12.9077 62.4529 13.287 62.4529 13.7131V19.7089H60.5416ZM67.6032 19.7089V6.61795H75.7211V8.31824H69.5784V12.3069H75.1395V14.0008H69.5784V19.7089H67.6032ZM79.9079 6.61795V19.7089H77.9967V6.61795H79.9079ZM86.6148 19.907C85.6943 19.907 84.8911 19.6961 84.205 19.2742C83.5189 18.8523 82.9862 18.2621 82.607 17.5036C82.2277 16.7451 82.0381 15.8587 82.0381 14.8445C82.0381 13.826 82.2277 12.9354 82.607 12.1726C82.9862 11.4099 83.5189 10.8175 84.205 10.3957C84.8911 9.97378 85.6943 9.76284 86.6148 9.76284C87.5352 9.76284 88.3385 9.97378 89.0246 10.3957C89.7107 10.8175 90.2433 11.4099 90.6226 12.1726C91.0019 12.9354 91.1915 13.826 91.1915 14.8445C91.1915 15.8587 91.0019 16.7451 90.6226 17.5036C90.2433 18.2621 89.7107 18.8523 89.0246 19.2742C88.3385 19.6961 87.5352 19.907 86.6148 19.907ZM86.6212 18.3026C87.2178 18.3026 87.7121 18.1449 88.1041 17.8296C88.4962 17.5143 88.786 17.0945 88.9735 16.5704C89.1652 16.0462 89.2611 15.4688 89.2611 14.8381C89.2611 14.2117 89.1652 13.6364 88.9735 13.1123C88.786 12.5839 88.4962 12.1599 88.1041 11.8403C87.7121 11.5207 87.2178 11.3609 86.6212 11.3609C86.0203 11.3609 85.5218 11.5207 85.1254 11.8403C84.7334 12.1599 84.4415 12.5839 84.2497 13.1123C84.0622 13.6364 83.9685 14.2117 83.9685 14.8381C83.9685 15.4688 84.0622 16.0462 84.2497 16.5704C84.4415 17.0945 84.7334 17.5143 85.1254 17.8296C85.5218 18.1449 86.0203 18.3026 86.6212 18.3026ZM95.1546 19.7089L92.2654 9.89068H94.2405L96.1645 17.1009H96.2604L98.1908 9.89068H100.166L102.084 17.0689H102.179L104.091 9.89068H106.066L103.183 19.7089H101.233L99.2391 12.6201H99.0921L97.0977 19.7089H95.1546Z" fill="white"/>
</svg>
