<svg width="37" height="38" viewBox="0 0 37 38" fill="none" xmlns="http://www.w3.org/2000/svg">
<g filter="url(#filter0_d_13001_12960)">
<rect x="0.0187988" y="0.800735" width="36" height="36" rx="8" fill="#4368E3"/>
<path fill-rule="evenodd" clip-rule="evenodd" d="M24.6855 12.7822C25.1458 12.7822 25.5189 13.1553 25.5189 13.6155V19.5414C25.5189 20.1205 25.3201 20.6953 24.9377 21.1355C24.552 21.5794 24.0017 21.8563 23.3985 21.8563H14.0307L15.5711 23.3967C15.8965 23.7221 15.8965 24.2497 15.5711 24.5752C15.2457 24.9006 14.718 24.9006 14.3926 24.5752L11.4296 21.6122C11.2733 21.4559 11.1855 21.244 11.1855 21.023C11.1855 20.8019 11.2733 20.59 11.4296 20.4337L14.3926 17.4707C14.718 17.1453 15.2457 17.1453 15.5711 17.4707C15.8965 17.7962 15.8965 18.3238 15.5711 18.6492L14.0308 20.1896H23.3985C23.478 20.1896 23.5824 20.1542 23.6795 20.0425C23.7798 19.927 23.8522 19.7482 23.8522 19.5414V13.6155C23.8522 13.1553 24.2253 12.7822 24.6855 12.7822Z" fill="white"/>
</g>
<defs>
<filter id="filter0_d_13001_12960" x="0.0187988" y="0.800735" width="36" height="37" filterUnits="userSpaceOnUse" color-interpolation-filters="sRGB">
<feFlood flood-opacity="0" result="BackgroundImageFix"/>
<feColorMatrix in="SourceAlpha" type="matrix" values="0 0 0 0 0 0 0 0 0 0 0 0 0 0 0 0 0 0 127 0" result="hardAlpha"/>
<feOffset dy="1"/>
<feComposite in2="hardAlpha" operator="out"/>
<feColorMatrix type="matrix" values="0 0 0 0 0 0 0 0 0 0 0 0 0 0 0 0 0 0 0.4 0"/>
<feBlend mode="normal" in2="BackgroundImageFix" result="effect1_dropShadow_13001_12960"/>
<feBlend mode="normal" in="SourceGraphic" in2="effect1_dropShadow_13001_12960" result="shape"/>
</filter>
</defs>
</svg>
