<svg width="56" height="22" viewBox="0 0 56 22" fill="none" xmlns="http://www.w3.org/2000/svg">
<rect x="1.47173" y="0.584216" width="53.3237" height="20.0216" rx="3.57554" stroke="#545B64" stroke-width="1.02158"/>
<path d="M22.8779 14.9081H21.8625V12.3194C20.7612 12.8772 19.7171 13.7354 18.716 14.9081H17.8865C18.3584 13.8927 18.8161 13.1204 19.2738 12.6198H9.86295V11.6043H19.2595C18.8161 11.1038 18.3584 10.3314 17.8865 9.3303H18.716C19.7171 10.5031 20.7612 11.3612 21.8625 11.919V9.3303H22.8779V14.9081ZM28.2944 7.17067V16.0952H27.093V7.17067H23.9179V6.11231H31.4695V7.17067H28.2944ZM37.3613 16.0952C36.9322 16.0952 36.6224 15.9808 36.4317 15.752C36.2505 15.5231 36.1361 15.2371 36.0884 14.8938H36.0169C35.8548 15.3515 35.5878 15.6948 35.216 15.9236C34.8441 16.1524 34.4008 16.2668 33.8859 16.2668C33.104 16.2668 32.4938 16.0666 32.0552 15.6662C31.6261 15.2657 31.4116 14.7222 31.4116 14.0357C31.4116 13.3397 31.6643 12.8057 32.1696 12.4339C32.6845 12.062 33.4806 11.8761 34.5581 11.8761H36.0169V11.1467C36.0169 10.6223 35.8739 10.2218 35.5878 9.94529C35.3018 9.66878 34.8632 9.53053 34.272 9.53053C33.8239 9.53053 33.4473 9.63064 33.1422 9.83087C32.8466 10.0311 32.5987 10.2981 32.3985 10.6318L31.7119 9.9882C31.9122 9.58774 32.2316 9.24925 32.6702 8.97274C33.1088 8.6867 33.6618 8.54368 34.3292 8.54368C35.2255 8.54368 35.9215 8.76298 36.4174 9.20158C36.9132 9.64018 37.1611 10.2504 37.1611 11.0323V15.0941H38.0049V16.0952H37.3613ZM34.0718 15.2943C34.3578 15.2943 34.6201 15.2609 34.8584 15.1942C35.0968 15.1274 35.3018 15.0321 35.4734 14.9081C35.645 14.7842 35.7785 14.6412 35.8739 14.4791C35.9692 14.317 36.0169 14.1406 36.0169 13.9499V12.7342H34.5009C33.843 12.7342 33.3615 12.8296 33.0564 13.0203C32.7608 13.2109 32.613 13.4875 32.613 13.8498V14.1501C32.613 14.5124 32.7417 14.7937 32.9991 14.9939C33.2661 15.1942 33.6237 15.2943 34.0718 15.2943ZM39.6379 5.51162H40.7821V9.91669H40.8393C41.03 9.44948 41.3065 9.10623 41.6688 8.88693C42.0407 8.6581 42.484 8.54368 42.9989 8.54368C43.4566 8.54368 43.8713 8.63426 44.2432 8.81542C44.6151 8.99658 44.9297 9.25402 45.1871 9.58774C45.4541 9.92145 45.6543 10.3267 45.7878 10.8034C45.9309 11.2802 46.0024 11.8141 46.0024 12.4053C46.0024 12.9964 45.9309 13.5304 45.7878 14.0071C45.6543 14.4838 45.4541 14.8891 45.1871 15.2228C44.9297 15.5565 44.6151 15.8139 44.2432 15.9951C43.8713 16.1763 43.4566 16.2668 42.9989 16.2668C41.9978 16.2668 41.2779 15.8092 40.8393 14.8938H40.7821V16.0952H39.6379V5.51162ZM42.6843 15.2371C43.3326 15.2371 43.8427 15.0369 44.2146 14.6364C44.5865 14.2264 44.7724 13.6925 44.7724 13.0346V11.776C44.7724 11.1181 44.5865 10.5889 44.2146 10.1884C43.8427 9.77843 43.3326 9.57343 42.6843 9.57343C42.4268 9.57343 42.1789 9.61157 41.9406 9.68785C41.7117 9.75459 41.5115 9.84994 41.3399 9.97389C41.1682 10.0978 41.03 10.2504 40.9251 10.4316C40.8298 10.6032 40.7821 10.7891 40.7821 10.9893V13.7354C40.7821 13.9737 40.8298 14.1883 40.9251 14.379C41.03 14.5601 41.1682 14.7174 41.3399 14.8509C41.5115 14.9749 41.7117 15.0702 41.9406 15.137C42.1789 15.2037 42.4268 15.2371 42.6843 15.2371Z" fill="#CFD3D8"/>
</svg>
